<svg xmlns="http://www.w3.org/2000/svg" xmlns:xlink="http://www.w3.org/1999/xlink" width="400" zoomAndPan="magnify" viewBox="0 0 300 112.499997" height="150" preserveAspectRatio="xMidYMid meet" version="1.0"><defs><g/><clipPath id="7b345439bc"><path d="M 13 32 L 59 32 L 59 84 L 13 84 Z M 13 32 " clip-rule="nonzero"/></clipPath><clipPath id="b0ee086944"><path d="M 11.863281 36.488281 L 48.320312 28.445312 L 58.777344 75.839844 L 22.320312 83.882812 Z M 11.863281 36.488281 " clip-rule="nonzero"/></clipPath><clipPath id="7bb63efe1f"><path d="M 11.863281 36.488281 L 48.320312 28.445312 L 58.777344 75.839844 L 22.320312 83.882812 Z M 11.863281 36.488281 " clip-rule="nonzero"/></clipPath><clipPath id="ab3d936e0f"><path d="M 15 42 L 57 42 L 57 82 L 15 82 Z M 15 42 " clip-rule="nonzero"/></clipPath><clipPath id="53df8e56aa"><path d="M 11.863281 36.488281 L 48.320312 28.445312 L 58.777344 75.839844 L 22.320312 83.882812 Z M 11.863281 36.488281 " clip-rule="nonzero"/></clipPath><clipPath id="f3450561e8"><path d="M 11.863281 36.488281 L 48.320312 28.445312 L 58.777344 75.839844 L 22.320312 83.882812 Z M 11.863281 36.488281 " clip-rule="nonzero"/></clipPath><clipPath id="29edbc023e"><path d="M 38 36 L 57 36 L 57 73 L 38 73 Z M 38 36 " clip-rule="nonzero"/></clipPath><clipPath id="96e316ce70"><path d="M 11.863281 36.488281 L 48.320312 28.445312 L 58.777344 75.839844 L 22.320312 83.882812 Z M 11.863281 36.488281 " clip-rule="nonzero"/></clipPath><clipPath id="a8ede90d6b"><path d="M 11.863281 36.488281 L 48.320312 28.445312 L 58.777344 75.839844 L 22.320312 83.882812 Z M 11.863281 36.488281 " clip-rule="nonzero"/></clipPath><clipPath id="4a651e60b9"><path d="M 18 39 L 55 39 L 55 79 L 18 79 Z M 18 39 " clip-rule="nonzero"/></clipPath><clipPath id="2a7770e395"><path d="M 11.863281 36.488281 L 48.320312 28.445312 L 58.777344 75.839844 L 22.320312 83.882812 Z M 11.863281 36.488281 " clip-rule="nonzero"/></clipPath><clipPath id="481dbb96ec"><path d="M 11.863281 36.488281 L 48.320312 28.445312 L 58.777344 75.839844 L 22.320312 83.882812 Z M 11.863281 36.488281 " clip-rule="nonzero"/></clipPath><clipPath id="ca1e0bc64c"><path d="M 41 49 L 47 49 L 47 64 L 41 64 Z M 41 49 " clip-rule="nonzero"/></clipPath><clipPath id="b4f26eb498"><path d="M 11.863281 36.488281 L 48.320312 28.445312 L 58.777344 75.839844 L 22.320312 83.882812 Z M 11.863281 36.488281 " clip-rule="nonzero"/></clipPath><clipPath id="b8c6c5ede3"><path d="M 11.863281 36.488281 L 48.320312 28.445312 L 58.777344 75.839844 L 22.320312 83.882812 Z M 11.863281 36.488281 " clip-rule="nonzero"/></clipPath><clipPath id="24d6e3ef91"><path d="M 37 44 L 43 44 L 43 50 L 37 50 Z M 37 44 " clip-rule="nonzero"/></clipPath><clipPath id="ebdb63473d"><path d="M 11.863281 36.488281 L 48.320312 28.445312 L 58.777344 75.839844 L 22.320312 83.882812 Z M 11.863281 36.488281 " clip-rule="nonzero"/></clipPath><clipPath id="e9c23b5e1a"><path d="M 11.863281 36.488281 L 48.320312 28.445312 L 58.777344 75.839844 L 22.320312 83.882812 Z M 11.863281 36.488281 " clip-rule="nonzero"/></clipPath><clipPath id="1c99354852"><path d="M 41 64 L 48 64 L 48 71 L 41 71 Z M 41 64 " clip-rule="nonzero"/></clipPath><clipPath id="093b5f0aeb"><path d="M 11.863281 36.488281 L 48.320312 28.445312 L 58.777344 75.839844 L 22.320312 83.882812 Z M 11.863281 36.488281 " clip-rule="nonzero"/></clipPath><clipPath id="00694f3b36"><path d="M 11.863281 36.488281 L 48.320312 28.445312 L 58.777344 75.839844 L 22.320312 83.882812 Z M 11.863281 36.488281 " clip-rule="nonzero"/></clipPath><clipPath id="bf840fbbc9"><path d="M 24 34 L 40 34 L 40 45 L 24 45 Z M 24 34 " clip-rule="nonzero"/></clipPath><clipPath id="cdaf920809"><path d="M 11.863281 36.488281 L 48.320312 28.445312 L 58.777344 75.839844 L 22.320312 83.882812 Z M 11.863281 36.488281 " clip-rule="nonzero"/></clipPath><clipPath id="416efc6b34"><path d="M 11.863281 36.488281 L 48.320312 28.445312 L 58.777344 75.839844 L 22.320312 83.882812 Z M 11.863281 36.488281 " clip-rule="nonzero"/></clipPath><clipPath id="938f456200"><path d="M 42 66 L 46 66 L 46 69 L 42 69 Z M 42 66 " clip-rule="nonzero"/></clipPath><clipPath id="7c280e3558"><path d="M 11.863281 36.488281 L 48.320312 28.445312 L 58.777344 75.839844 L 22.320312 83.882812 Z M 11.863281 36.488281 " clip-rule="nonzero"/></clipPath><clipPath id="93cfcb9ec7"><path d="M 11.863281 36.488281 L 48.320312 28.445312 L 58.777344 75.839844 L 22.320312 83.882812 Z M 11.863281 36.488281 " clip-rule="nonzero"/></clipPath><clipPath id="5d674df7d7"><path d="M 27 65 L 34 65 L 34 72 L 27 72 Z M 27 65 " clip-rule="nonzero"/></clipPath><clipPath id="d82da65981"><path d="M 11.863281 36.488281 L 48.320312 28.445312 L 58.777344 75.839844 L 22.320312 83.882812 Z M 11.863281 36.488281 " clip-rule="nonzero"/></clipPath><clipPath id="c0fa4a84ba"><path d="M 11.863281 36.488281 L 48.320312 28.445312 L 58.777344 75.839844 L 22.320312 83.882812 Z M 11.863281 36.488281 " clip-rule="nonzero"/></clipPath><clipPath id="701cc8d1fc"><path d="M 24 49 L 30 49 L 30 56 L 24 56 Z M 24 49 " clip-rule="nonzero"/></clipPath><clipPath id="61c7e92c82"><path d="M 11.863281 36.488281 L 48.320312 28.445312 L 58.777344 75.839844 L 22.320312 83.882812 Z M 11.863281 36.488281 " clip-rule="nonzero"/></clipPath><clipPath id="4368334836"><path d="M 11.863281 36.488281 L 48.320312 28.445312 L 58.777344 75.839844 L 22.320312 83.882812 Z M 11.863281 36.488281 " clip-rule="nonzero"/></clipPath><clipPath id="0509be0047"><path d="M 26 55 L 31 55 L 31 65 L 26 65 Z M 26 55 " clip-rule="nonzero"/></clipPath><clipPath id="44d9267264"><path d="M 11.863281 36.488281 L 48.320312 28.445312 L 58.777344 75.839844 L 22.320312 83.882812 Z M 11.863281 36.488281 " clip-rule="nonzero"/></clipPath><clipPath id="924fd4e181"><path d="M 11.863281 36.488281 L 48.320312 28.445312 L 58.777344 75.839844 L 22.320312 83.882812 Z M 11.863281 36.488281 " clip-rule="nonzero"/></clipPath><clipPath id="04ea555d12"><path d="M 29 67 L 32 67 L 32 71 L 29 71 Z M 29 67 " clip-rule="nonzero"/></clipPath><clipPath id="da9a73a8b9"><path d="M 11.863281 36.488281 L 48.320312 28.445312 L 58.777344 75.839844 L 22.320312 83.882812 Z M 11.863281 36.488281 " clip-rule="nonzero"/></clipPath><clipPath id="e2fa0ee867"><path d="M 11.863281 36.488281 L 48.320312 28.445312 L 58.777344 75.839844 L 22.320312 83.882812 Z M 11.863281 36.488281 " clip-rule="nonzero"/></clipPath></defs><g clip-path="url(#7b345439bc)"><g clip-path="url(#b0ee086944)"><g clip-path="url(#7bb63efe1f)"><path fill="#040606" d="M 39.542969 40.285156 L 38.78125 36.828125 C 38.675781 36.355469 38.203125 36.046875 37.722656 36.152344 L 35.628906 36.613281 L 36.070312 38.613281 C 36.171875 39.078125 35.878906 39.539062 35.414062 39.640625 C 34.960938 39.738281 34.5 39.445312 34.398438 38.980469 L 33.773438 36.152344 C 33.457031 34.71875 32.035156 33.816406 30.609375 34.132812 C 29.175781 34.445312 28.273438 35.859375 28.589844 37.292969 L 29.214844 40.125 C 29.316406 40.589844 29.023438 41.050781 28.558594 41.152344 C 28.105469 41.253906 27.644531 40.957031 27.542969 40.496094 L 27.101562 38.496094 L 25.007812 38.957031 C 24.527344 39.0625 24.226562 39.542969 24.332031 40.015625 L 25.09375 43.472656 C 25.199219 43.945312 25.667969 44.246094 26.148438 44.140625 L 38.867188 41.335938 C 39.347656 41.230469 39.648438 40.757812 39.542969 40.285156 Z M 56.699219 73.042969 L 48.996094 38.144531 C 48.824219 37.355469 48.046875 36.851562 47.25 37.027344 L 40.890625 38.433594 L 41.21875 39.917969 C 41.527344 41.316406 40.636719 42.707031 39.238281 43.015625 L 26.519531 45.824219 C 25.121094 46.132812 23.730469 45.242188 23.421875 43.84375 L 23.09375 42.359375 L 16.726562 43.761719 C 15.9375 43.9375 15.433594 44.722656 15.609375 45.511719 L 23.308594 80.410156 C 23.484375 81.199219 24.269531 81.703125 25.058594 81.527344 L 55.582031 74.792969 C 56.378906 74.617188 56.871094 73.832031 56.699219 73.042969 Z M 50.679688 37.773438 L 58.378906 72.671875 C 58.757812 74.378906 57.664062 76.089844 55.949219 76.464844 L 25.425781 83.199219 C 23.71875 83.578125 22.011719 82.488281 21.636719 80.78125 L 13.9375 45.882812 C 13.558594 44.164062 14.648438 42.464844 16.355469 42.089844 L 22.722656 40.683594 L 22.65625 40.382812 C 22.347656 38.984375 23.238281 37.59375 24.636719 37.285156 L 26.808594 36.804688 C 26.773438 34.769531 28.171875 32.914062 30.242188 32.457031 C 32.308594 32 34.359375 33.097656 35.175781 34.960938 L 37.355469 34.476562 C 38.753906 34.167969 40.144531 35.058594 40.453125 36.457031 L 40.519531 36.757812 L 46.878906 35.355469 C 48.59375 34.976562 50.300781 36.058594 50.679688 37.773438 " fill-opacity="1" fill-rule="nonzero"/></g></g></g><g clip-path="url(#ab3d936e0f)"><g clip-path="url(#53df8e56aa)"><g clip-path="url(#f3450561e8)"><path fill="#38b6ff" d="M 29.828125 63.988281 C 30.179688 63.675781 30.222656 63.128906 29.902344 62.777344 C 28.171875 60.808594 28.011719 56.777344 28.011719 56.742188 C 27.996094 56.269531 27.601562 55.894531 27.128906 55.910156 C 26.652344 55.925781 26.28125 56.324219 26.296875 56.796875 C 26.300781 56.984375 26.476562 61.480469 28.621094 63.914062 C 28.839844 64.152344 29.15625 64.246094 29.445312 64.183594 C 29.585938 64.152344 29.714844 64.085938 29.828125 63.988281 Z M 28.679688 51.195312 C 28.933594 50.796875 28.816406 50.265625 28.417969 50.011719 C 28.019531 49.757812 27.488281 49.875 27.234375 50.273438 L 26.597656 51.269531 L 25.601562 50.632812 C 25.203125 50.378906 24.671875 50.496094 24.417969 50.894531 C 24.164062 51.292969 24.28125 51.824219 24.679688 52.078125 L 25.675781 52.714844 L 25.039062 53.707031 C 24.785156 54.105469 24.902344 54.636719 25.300781 54.890625 C 25.5 55.019531 25.734375 55.058594 25.949219 55.011719 C 26.164062 54.964844 26.359375 54.828125 26.484375 54.632812 L 27.121094 53.636719 L 28.117188 54.269531 C 28.3125 54.398438 28.546875 54.4375 28.761719 54.390625 C 28.976562 54.34375 29.171875 54.207031 29.300781 54.011719 C 29.554688 53.613281 29.4375 53.078125 29.039062 52.824219 L 28.042969 52.191406 Z M 33.421875 68.136719 C 33.0625 66.496094 31.441406 65.46875 29.8125 65.828125 C 28.179688 66.1875 27.140625 67.804688 27.503906 69.441406 C 27.863281 71.074219 29.484375 72.109375 31.117188 71.75 C 32.746094 71.390625 33.785156 69.765625 33.421875 68.136719 Z M 56.3125 71.300781 L 56.699219 73.042969 C 56.871094 73.832031 56.378906 74.617188 55.582031 74.792969 L 25.058594 81.527344 C 24.269531 81.703125 23.484375 81.199219 23.308594 80.410156 L 15.609375 45.511719 C 15.433594 44.722656 15.9375 43.9375 16.726562 43.761719 L 23.09375 42.359375 L 23.421875 43.84375 C 23.730469 45.242188 25.121094 46.132812 26.519531 45.824219 L 38.027344 43.285156 L 38.40625 44.992188 C 38.191406 45.039062 37.992188 45.164062 37.867188 45.363281 C 37.613281 45.761719 37.730469 46.292969 38.125 46.546875 L 39.121094 47.179688 L 38.484375 48.167969 C 38.234375 48.574219 38.347656 49.097656 38.746094 49.351562 C 38.945312 49.480469 39.179688 49.519531 39.394531 49.46875 C 39.609375 49.421875 39.804688 49.289062 39.929688 49.089844 L 40.558594 48.105469 L 41.550781 48.734375 C 41.75 48.859375 41.984375 48.898438 42.199219 48.851562 L 42.425781 49.835938 C 42.324219 49.859375 42.214844 49.902344 42.121094 49.964844 C 41.730469 50.234375 41.632812 50.765625 41.898438 51.160156 C 41.9375 51.210938 45.652344 56.746094 44.058594 62.003906 C 43.941406 62.378906 44.097656 62.765625 44.414062 62.976562 L 43.492188 64.664062 C 41.863281 65.023438 40.824219 66.648438 41.183594 68.277344 C 41.542969 69.910156 43.167969 70.945312 44.796875 70.585938 L 45.296875 72.851562 L 26.550781 76.988281 L 19.804688 46.421875 C 19.703125 45.957031 19.242188 45.664062 18.777344 45.765625 C 18.324219 45.867188 18.03125 46.328125 18.132812 46.792969 L 25.0625 78.199219 C 25.160156 78.652344 25.621094 78.945312 26.078125 78.847656 L 53.527344 72.789062 C 53.992188 72.6875 54.285156 72.226562 54.183594 71.773438 L 56.3125 71.300781 " fill-opacity="1" fill-rule="nonzero"/></g></g></g><g clip-path="url(#29edbc023e)"><g clip-path="url(#96e316ce70)"><g clip-path="url(#a8ede90d6b)"><path fill="#38b6ff" d="M 48.996094 38.144531 L 56.3125 71.300781 L 54.183594 71.773438 L 47.257812 40.367188 C 47.152344 39.902344 46.691406 39.609375 46.230469 39.710938 C 45.773438 39.8125 45.480469 40.269531 45.582031 40.734375 L 52.324219 71.300781 L 45.296875 72.851562 L 44.796875 70.585938 C 46.429688 70.226562 47.464844 68.601562 47.105469 66.972656 C 46.746094 65.339844 45.121094 64.304688 43.492188 64.664062 L 44.414062 62.976562 C 44.476562 63.015625 44.550781 63.054688 44.625 63.074219 C 44.769531 63.113281 44.914062 63.117188 45.050781 63.085938 C 45.351562 63.019531 45.601562 62.804688 45.695312 62.496094 C 47.523438 56.46875 43.484375 50.4375 43.3125 50.1875 C 43.113281 49.890625 42.75 49.765625 42.425781 49.835938 L 42.199219 48.851562 C 42.414062 48.804688 42.609375 48.671875 42.734375 48.472656 C 42.992188 48.074219 42.875 47.550781 42.476562 47.289062 L 41.480469 46.660156 L 42.117188 45.664062 C 42.371094 45.269531 42.253906 44.734375 41.855469 44.480469 C 41.457031 44.226562 40.925781 44.34375 40.671875 44.742188 L 40.035156 45.738281 L 39.050781 45.101562 C 38.84375 44.976562 38.621094 44.945312 38.40625 44.992188 L 38.027344 43.285156 L 39.238281 43.015625 C 40.636719 42.707031 41.527344 41.316406 41.21875 39.917969 L 40.890625 38.433594 L 47.25 37.027344 C 48.046875 36.851562 48.824219 37.355469 48.996094 38.144531 " fill-opacity="1" fill-rule="nonzero"/></g></g></g><g clip-path="url(#4a651e60b9)"><g clip-path="url(#2a7770e395)"><g clip-path="url(#481dbb96ec)"><path fill="#040606" d="M 47.257812 40.367188 L 54.183594 71.773438 C 54.285156 72.226562 53.992188 72.6875 53.527344 72.789062 L 26.078125 78.847656 C 25.621094 78.945312 25.160156 78.652344 25.0625 78.199219 L 18.132812 46.792969 C 18.03125 46.328125 18.324219 45.867188 18.777344 45.765625 C 19.242188 45.664062 19.703125 45.957031 19.804688 46.421875 L 26.550781 76.988281 L 52.324219 71.300781 L 45.582031 40.734375 C 45.480469 40.269531 45.773438 39.8125 46.230469 39.710938 C 46.691406 39.609375 47.152344 39.902344 47.257812 40.367188 " fill-opacity="1" fill-rule="nonzero"/></g></g></g><g clip-path="url(#ca1e0bc64c)"><g clip-path="url(#b4f26eb498)"><g clip-path="url(#b8c6c5ede3)"><path fill="#040606" d="M 43.3125 50.1875 C 43.484375 50.4375 47.523438 56.46875 45.695312 62.496094 C 45.601562 62.804688 45.351562 63.019531 45.050781 63.085938 C 44.914062 63.117188 44.769531 63.113281 44.625 63.074219 C 44.550781 63.054688 44.476562 63.015625 44.414062 62.976562 C 44.097656 62.765625 43.941406 62.378906 44.058594 62.003906 C 45.652344 56.746094 41.9375 51.210938 41.898438 51.160156 C 41.632812 50.765625 41.730469 50.234375 42.121094 49.964844 C 42.214844 49.902344 42.324219 49.859375 42.425781 49.835938 C 42.75 49.765625 43.113281 49.890625 43.3125 50.1875 " fill-opacity="1" fill-rule="nonzero"/></g></g></g><g clip-path="url(#24d6e3ef91)"><g clip-path="url(#ebdb63473d)"><g clip-path="url(#e9c23b5e1a)"><path fill="#040606" d="M 41.855469 44.480469 C 42.253906 44.734375 42.371094 45.269531 42.117188 45.664062 L 41.480469 46.660156 L 42.476562 47.289062 C 42.875 47.550781 42.992188 48.074219 42.734375 48.472656 C 42.609375 48.671875 42.414062 48.804688 42.199219 48.851562 C 41.984375 48.898438 41.75 48.859375 41.550781 48.734375 L 40.558594 48.105469 L 39.929688 49.089844 C 39.804688 49.289062 39.609375 49.421875 39.394531 49.46875 C 39.179688 49.519531 38.945312 49.480469 38.746094 49.351562 C 38.347656 49.097656 38.234375 48.574219 38.484375 48.167969 L 39.121094 47.179688 L 38.125 46.546875 C 37.730469 46.292969 37.613281 45.761719 37.867188 45.363281 C 37.992188 45.164062 38.191406 45.039062 38.40625 44.992188 C 38.621094 44.945312 38.84375 44.976562 39.050781 45.101562 L 40.035156 45.738281 L 40.671875 44.742188 C 40.925781 44.34375 41.457031 44.226562 41.855469 44.480469 " fill-opacity="1" fill-rule="nonzero"/></g></g></g><g clip-path="url(#1c99354852)"><g clip-path="url(#093b5f0aeb)"><g clip-path="url(#00694f3b36)"><path fill="#040606" d="M 45.433594 67.339844 C 45.277344 66.636719 44.574219 66.179688 43.863281 66.335938 C 43.148438 66.496094 42.703125 67.207031 42.859375 67.910156 C 43.015625 68.621094 43.71875 69.070312 44.429688 68.910156 C 45.140625 68.753906 45.589844 68.054688 45.433594 67.339844 Z M 43.492188 64.664062 C 45.121094 64.304688 46.746094 65.339844 47.105469 66.972656 C 47.464844 68.601562 46.429688 70.226562 44.796875 70.585938 C 43.167969 70.945312 41.542969 69.910156 41.183594 68.277344 C 40.824219 66.648438 41.863281 65.023438 43.492188 64.664062 " fill-opacity="1" fill-rule="nonzero"/></g></g></g><g clip-path="url(#bf840fbbc9)"><g clip-path="url(#cdaf920809)"><g clip-path="url(#416efc6b34)"><path fill="#000000" d="M 39.03125 37.960938 L 39.542969 40.285156 C 39.648438 40.757812 39.347656 41.230469 38.867188 41.335938 L 26.148438 44.140625 C 25.667969 44.246094 25.199219 43.945312 25.09375 43.472656 L 24.332031 40.015625 C 24.226562 39.542969 24.527344 39.0625 25.007812 38.957031 L 27.101562 38.496094 L 27.542969 40.496094 C 27.644531 40.957031 28.105469 41.253906 28.558594 41.152344 C 29.023438 41.050781 29.316406 40.589844 29.214844 40.125 L 28.589844 37.292969 C 28.273438 35.859375 29.175781 34.445312 30.609375 34.132812 C 32.035156 33.816406 33.457031 34.71875 33.773438 36.152344 L 34.398438 38.980469 C 34.5 39.445312 34.960938 39.738281 35.414062 39.640625 C 35.878906 39.539062 36.171875 39.078125 36.070312 38.613281 L 35.628906 36.613281 L 37.722656 36.152344 C 38.203125 36.046875 38.675781 36.355469 38.78125 36.828125 L 39.03125 37.960938 " fill-opacity="1" fill-rule="nonzero"/></g></g></g><g clip-path="url(#938f456200)"><g clip-path="url(#7c280e3558)"><g clip-path="url(#93cfcb9ec7)"><path fill="#c5ecfb" d="M 43.863281 66.335938 C 44.574219 66.179688 45.277344 66.636719 45.433594 67.339844 C 45.589844 68.054688 45.140625 68.753906 44.429688 68.910156 C 43.71875 69.070312 43.015625 68.621094 42.859375 67.910156 C 42.703125 67.207031 43.148438 66.496094 43.863281 66.335938 " fill-opacity="1" fill-rule="nonzero"/></g></g></g><g clip-path="url(#5d674df7d7)"><g clip-path="url(#d82da65981)"><g clip-path="url(#c0fa4a84ba)"><path fill="#040606" d="M 31.75 68.503906 C 31.59375 67.792969 30.890625 67.34375 30.179688 67.503906 C 29.46875 67.660156 29.019531 68.363281 29.175781 69.074219 C 29.332031 69.777344 30.035156 70.234375 30.746094 70.078125 C 31.460938 69.917969 31.90625 69.210938 31.75 68.503906 Z M 29.8125 65.828125 C 31.441406 65.46875 33.0625 66.496094 33.421875 68.136719 C 33.785156 69.765625 32.746094 71.390625 31.117188 71.75 C 29.484375 72.109375 27.863281 71.074219 27.503906 69.441406 C 27.140625 67.804688 28.179688 66.1875 29.8125 65.828125 " fill-opacity="1" fill-rule="nonzero"/></g></g></g><g clip-path="url(#701cc8d1fc)"><g clip-path="url(#61c7e92c82)"><g clip-path="url(#4368334836)"><path fill="#040606" d="M 28.417969 50.011719 C 28.816406 50.265625 28.933594 50.796875 28.679688 51.195312 L 28.042969 52.191406 L 29.039062 52.824219 C 29.4375 53.078125 29.554688 53.613281 29.300781 54.011719 C 29.171875 54.207031 28.976562 54.34375 28.761719 54.390625 C 28.546875 54.4375 28.3125 54.398438 28.117188 54.269531 L 27.121094 53.636719 L 26.484375 54.632812 C 26.359375 54.828125 26.164062 54.964844 25.949219 55.011719 C 25.734375 55.058594 25.5 55.019531 25.300781 54.890625 C 24.902344 54.636719 24.785156 54.105469 25.039062 53.707031 L 25.675781 52.714844 L 24.679688 52.078125 C 24.28125 51.824219 24.164062 51.292969 24.417969 50.894531 C 24.671875 50.496094 25.203125 50.378906 25.601562 50.632812 L 26.597656 51.269531 L 27.234375 50.273438 C 27.488281 49.875 28.019531 49.757812 28.417969 50.011719 " fill-opacity="1" fill-rule="nonzero"/></g></g></g><g clip-path="url(#0509be0047)"><g clip-path="url(#44d9267264)"><g clip-path="url(#924fd4e181)"><path fill="#040606" d="M 29.902344 62.777344 C 30.222656 63.128906 30.179688 63.675781 29.828125 63.988281 C 29.714844 64.085938 29.585938 64.152344 29.445312 64.183594 C 29.15625 64.246094 28.839844 64.152344 28.621094 63.914062 C 26.476562 61.480469 26.300781 56.984375 26.296875 56.796875 C 26.28125 56.324219 26.652344 55.925781 27.128906 55.910156 C 27.601562 55.894531 27.996094 56.269531 28.011719 56.742188 C 28.011719 56.777344 28.171875 60.808594 29.902344 62.777344 " fill-opacity="1" fill-rule="nonzero"/></g></g></g><g clip-path="url(#04ea555d12)"><g clip-path="url(#da9a73a8b9)"><g clip-path="url(#e2fa0ee867)"><path fill="#c5ecfb" d="M 30.179688 67.503906 C 30.890625 67.34375 31.59375 67.792969 31.75 68.503906 C 31.90625 69.210938 31.460938 69.917969 30.746094 70.078125 C 30.035156 70.234375 29.332031 69.777344 29.175781 69.074219 C 29.019531 68.363281 29.46875 67.660156 30.179688 67.503906 " fill-opacity="1" fill-rule="nonzero"/></g></g></g><g fill="#111111" fill-opacity="1"><g transform="translate(61.424684, 72.494331)"><g><path d="M 9.53125 -25.984375 C 10.550781 -25.984375 11.429688 -25.722656 12.171875 -25.203125 C 12.921875 -24.691406 13.550781 -24.015625 14.0625 -23.171875 C 14.570312 -22.335938 14.976562 -21.378906 15.28125 -20.296875 C 15.582031 -19.210938 15.816406 -18.101562 15.984375 -16.96875 C 16.148438 -15.832031 16.257812 -14.722656 16.3125 -13.640625 C 16.363281 -12.566406 16.390625 -11.597656 16.390625 -10.734375 C 16.390625 -8.773438 16.234375 -7.078125 15.921875 -5.640625 C 15.609375 -4.210938 15.179688 -3.03125 14.640625 -2.09375 C 14.109375 -1.15625 13.488281 -0.457031 12.78125 0 C 12.070312 0.457031 11.328125 0.6875 10.546875 0.6875 C 10.078125 0.632812 9.597656 0.523438 9.109375 0.359375 C 8.703125 0.203125 8.257812 -0.0351562 7.78125 -0.359375 C 7.3125 -0.679688 6.863281 -1.140625 6.4375 -1.734375 L 6.890625 7.890625 L 1.59375 7.890625 L 1.59375 -24.203125 L 6.109375 -24.53125 L 6.109375 -23.234375 C 6.296875 -23.585938 6.507812 -23.929688 6.75 -24.265625 C 7 -24.609375 7.265625 -24.90625 7.546875 -25.15625 C 7.828125 -25.40625 8.128906 -25.601562 8.453125 -25.75 C 8.785156 -25.90625 9.144531 -25.984375 9.53125 -25.984375 Z M 11.34375 -10.734375 C 11.34375 -11.265625 11.332031 -11.894531 11.3125 -12.625 C 11.289062 -13.351562 11.25 -14.109375 11.1875 -14.890625 C 11.125 -15.671875 11.03125 -16.445312 10.90625 -17.21875 C 10.78125 -17.988281 10.609375 -18.671875 10.390625 -19.265625 C 10.179688 -19.867188 9.921875 -20.359375 9.609375 -20.734375 C 9.304688 -21.117188 8.9375 -21.3125 8.5 -21.3125 C 8.082031 -21.3125 7.71875 -21.117188 7.40625 -20.734375 C 7.09375 -20.347656 6.835938 -19.828125 6.640625 -19.171875 C 6.441406 -18.515625 6.296875 -17.75 6.203125 -16.875 C 6.109375 -16.007812 6.0625 -15.097656 6.0625 -14.140625 C 6.0625 -13.703125 6.0625 -13.164062 6.0625 -12.53125 C 6.070312 -11.894531 6.097656 -11.222656 6.140625 -10.515625 C 6.191406 -9.816406 6.273438 -9.113281 6.390625 -8.40625 C 6.515625 -7.707031 6.679688 -7.078125 6.890625 -6.515625 C 7.109375 -5.960938 7.382812 -5.507812 7.71875 -5.15625 C 8.050781 -4.800781 8.460938 -4.625 8.953125 -4.625 C 9.484375 -4.625 9.910156 -4.796875 10.234375 -5.140625 C 10.554688 -5.484375 10.796875 -5.941406 10.953125 -6.515625 C 11.117188 -7.085938 11.222656 -7.738281 11.265625 -8.46875 C 11.316406 -9.207031 11.34375 -9.960938 11.34375 -10.734375 Z M 11.34375 -10.734375 "/></g></g></g><g fill="#111111" fill-opacity="1"><g transform="translate(78.688079, 72.494331)"><g><path d="M 15.4375 -14.46875 C 14.9375 -14.394531 14.410156 -14.300781 13.859375 -14.1875 C 13.390625 -14.09375 12.859375 -13.96875 12.265625 -13.8125 C 11.671875 -13.65625 11.078125 -13.472656 10.484375 -13.265625 C 10.640625 -14.054688 10.742188 -14.742188 10.796875 -15.328125 C 10.847656 -15.910156 10.875 -16.445312 10.875 -16.9375 C 10.875 -17.78125 10.800781 -18.441406 10.65625 -18.921875 C 10.507812 -19.398438 10.335938 -19.753906 10.140625 -19.984375 C 9.953125 -20.222656 9.769531 -20.363281 9.59375 -20.40625 C 9.414062 -20.457031 9.296875 -20.484375 9.234375 -20.484375 C 8.734375 -20.484375 8.328125 -20.273438 8.015625 -19.859375 C 7.703125 -19.441406 7.457031 -18.894531 7.28125 -18.21875 C 7.113281 -17.539062 6.992188 -16.757812 6.921875 -15.875 C 6.859375 -15 6.828125 -14.097656 6.828125 -13.171875 C 6.828125 -12.515625 6.835938 -11.859375 6.859375 -11.203125 C 6.878906 -10.546875 6.90625 -9.890625 6.9375 -9.234375 L 7.265625 0 L 1.828125 0.375 C 1.828125 -3.394531 1.789062 -6.796875 1.71875 -9.828125 C 1.65625 -12.859375 1.582031 -15.445312 1.5 -17.59375 C 1.40625 -20.101562 1.304688 -22.335938 1.203125 -24.296875 L 5.828125 -24.59375 L 6.0625 -21.9375 C 6.46875 -22.9375 6.945312 -23.726562 7.5 -24.3125 C 8.0625 -24.90625 8.617188 -25.347656 9.171875 -25.640625 C 9.722656 -25.929688 10.226562 -26.113281 10.6875 -26.1875 C 11.15625 -26.269531 11.507812 -26.3125 11.75 -26.3125 C 12.539062 -26.3125 13.1875 -26.054688 13.6875 -25.546875 C 14.195312 -25.035156 14.59375 -24.378906 14.875 -23.578125 C 15.15625 -22.785156 15.34375 -21.910156 15.4375 -20.953125 C 15.539062 -19.992188 15.59375 -19.070312 15.59375 -18.1875 C 15.59375 -17.476562 15.570312 -16.804688 15.53125 -16.171875 C 15.5 -15.535156 15.46875 -14.96875 15.4375 -14.46875 Z M 15.4375 -14.46875 "/></g></g></g><g fill="#111111" fill-opacity="1"><g transform="translate(94.5657, 72.494331)"><g><path d="M 15.203125 -13.453125 C 15.203125 -11.546875 15.113281 -9.867188 14.9375 -8.421875 C 14.769531 -6.984375 14.523438 -5.734375 14.203125 -4.671875 C 13.878906 -3.617188 13.492188 -2.742188 13.046875 -2.046875 C 12.597656 -1.359375 12.101562 -0.800781 11.5625 -0.375 C 11.03125 0.0507812 10.445312 0.347656 9.8125 0.515625 C 9.1875 0.691406 8.546875 0.78125 7.890625 0.78125 C 7.234375 0.78125 6.601562 0.707031 6 0.5625 C 5.394531 0.425781 4.832031 0.171875 4.3125 -0.203125 C 3.800781 -0.585938 3.328125 -1.097656 2.890625 -1.734375 C 2.460938 -2.378906 2.097656 -3.203125 1.796875 -4.203125 C 1.503906 -5.203125 1.273438 -6.398438 1.109375 -7.796875 C 0.953125 -9.191406 0.875 -10.828125 0.875 -12.703125 C 0.875 -15.523438 1.078125 -17.835938 1.484375 -19.640625 C 1.898438 -21.441406 2.445312 -22.863281 3.125 -23.90625 C 3.800781 -24.945312 4.566406 -25.664062 5.421875 -26.0625 C 6.285156 -26.457031 7.171875 -26.65625 8.078125 -26.65625 C 8.660156 -26.65625 9.242188 -26.597656 9.828125 -26.484375 C 10.421875 -26.367188 10.976562 -26.140625 11.5 -25.796875 C 12.019531 -25.453125 12.503906 -24.972656 12.953125 -24.359375 C 13.410156 -23.742188 13.804688 -22.945312 14.140625 -21.96875 C 14.472656 -20.988281 14.734375 -19.800781 14.921875 -18.40625 C 15.109375 -17.019531 15.203125 -15.367188 15.203125 -13.453125 Z M 10.140625 -13.265625 C 10.140625 -14.773438 10.082031 -16.007812 9.96875 -16.96875 C 9.863281 -17.9375 9.71875 -18.703125 9.53125 -19.265625 C 9.34375 -19.828125 9.113281 -20.210938 8.84375 -20.421875 C 8.582031 -20.640625 8.296875 -20.75 7.984375 -20.75 C 7.628906 -20.75 7.316406 -20.59375 7.046875 -20.28125 C 6.773438 -19.976562 6.550781 -19.488281 6.375 -18.8125 C 6.195312 -18.144531 6.0625 -17.28125 5.96875 -16.21875 C 5.875 -15.164062 5.828125 -13.878906 5.828125 -12.359375 C 5.828125 -10.816406 5.882812 -9.539062 6 -8.53125 C 6.113281 -7.53125 6.273438 -6.726562 6.484375 -6.125 C 6.703125 -5.519531 6.957031 -5.09375 7.25 -4.84375 C 7.539062 -4.59375 7.847656 -4.46875 8.171875 -4.46875 C 8.859375 -4.46875 9.359375 -5.175781 9.671875 -6.59375 C 9.984375 -8.019531 10.140625 -10.242188 10.140625 -13.265625 Z M 10.140625 -13.265625 "/></g></g></g><g fill="#111111" fill-opacity="1"><g transform="translate(110.631221, 72.494331)"><g><path d="M 1.640625 7.5625 C 1.191406 7.65625 0.757812 7.71875 0.34375 7.75 C -0.0703125 7.78125 -0.460938 7.796875 -0.828125 7.796875 C -1.429688 7.796875 -1.976562 7.757812 -2.46875 7.6875 C -2.96875 7.625 -3.390625 7.546875 -3.734375 7.453125 C -4.140625 7.335938 -4.5 7.210938 -4.8125 7.078125 L -4.625 2.390625 C -4.28125 2.472656 -3.90625 2.546875 -3.5 2.609375 C -3.15625 2.648438 -2.753906 2.691406 -2.296875 2.734375 C -1.847656 2.773438 -1.375 2.796875 -0.875 2.796875 C 0.175781 2.796875 0.894531 2.09375 1.28125 0.6875 C 1.675781 -0.707031 1.875 -2.832031 1.875 -5.6875 C 1.875 -6.625 1.863281 -7.632812 1.84375 -8.71875 C 1.820312 -9.800781 1.785156 -10.898438 1.734375 -12.015625 C 1.691406 -13.128906 1.640625 -14.242188 1.578125 -15.359375 C 1.523438 -16.484375 1.476562 -17.566406 1.4375 -18.609375 C 1.3125 -21.015625 1.171875 -23.441406 1.015625 -25.890625 L 6.296875 -25.890625 C 6.359375 -23.117188 6.421875 -20.476562 6.484375 -17.96875 C 6.492188 -16.90625 6.515625 -15.8125 6.546875 -14.6875 C 6.578125 -13.570312 6.597656 -12.492188 6.609375 -11.453125 C 6.628906 -10.421875 6.644531 -9.457031 6.65625 -8.5625 C 6.675781 -7.675781 6.6875 -6.921875 6.6875 -6.296875 C 6.6875 -4.191406 6.613281 -2.320312 6.46875 -0.6875 C 6.332031 0.945312 6.082031 2.34375 5.71875 3.5 C 5.351562 4.65625 4.835938 5.570312 4.171875 6.25 C 3.515625 6.9375 2.671875 7.375 1.640625 7.5625 Z M 7.21875 -31.125 C 7.21875 -30.65625 7.140625 -30.210938 6.984375 -29.796875 C 6.835938 -29.378906 6.609375 -29.019531 6.296875 -28.71875 C 5.984375 -28.414062 5.585938 -28.171875 5.109375 -27.984375 C 4.628906 -27.804688 4.0625 -27.71875 3.40625 -27.71875 C 2.71875 -27.71875 2.128906 -27.804688 1.640625 -27.984375 C 1.160156 -28.171875 0.769531 -28.414062 0.46875 -28.71875 C 0.175781 -29.019531 -0.0351562 -29.378906 -0.171875 -29.796875 C -0.304688 -30.210938 -0.375 -30.65625 -0.375 -31.125 C -0.375 -31.59375 -0.300781 -32.035156 -0.15625 -32.453125 C -0.0195312 -32.867188 0.195312 -33.226562 0.5 -33.53125 C 0.8125 -33.832031 1.203125 -34.070312 1.671875 -34.25 C 2.148438 -34.4375 2.726562 -34.53125 3.40625 -34.53125 C 4.082031 -34.53125 4.660156 -34.4375 5.140625 -34.25 C 5.628906 -34.070312 6.023438 -33.832031 6.328125 -33.53125 C 6.628906 -33.226562 6.851562 -32.867188 7 -32.453125 C 7.144531 -32.035156 7.21875 -31.59375 7.21875 -31.125 Z M 7.21875 -31.125 "/></g></g></g><g fill="#111111" fill-opacity="1"><g transform="translate(118.710957, 72.494331)"><g><path d="M 14.78125 -0.640625 C 13.320312 -0.128906 11.992188 0.203125 10.796875 0.359375 C 9.597656 0.515625 8.613281 0.59375 7.84375 0.59375 C 6.882812 0.59375 6.046875 0.398438 5.328125 0.015625 C 4.609375 -0.359375 3.984375 -0.859375 3.453125 -1.484375 C 2.929688 -2.109375 2.5 -2.832031 2.15625 -3.65625 C 1.8125 -4.476562 1.535156 -5.34375 1.328125 -6.25 C 1.128906 -7.15625 0.988281 -8.070312 0.90625 -9 C 0.820312 -9.9375 0.78125 -10.820312 0.78125 -11.65625 C 0.78125 -13.71875 0.941406 -15.617188 1.265625 -17.359375 C 1.597656 -19.109375 2.078125 -20.617188 2.703125 -21.890625 C 3.328125 -23.160156 4.097656 -24.148438 5.015625 -24.859375 C 5.941406 -25.578125 6.992188 -25.9375 8.171875 -25.9375 C 9.140625 -25.9375 10.023438 -25.691406 10.828125 -25.203125 C 11.628906 -24.722656 12.3125 -23.976562 12.875 -22.96875 C 13.4375 -21.96875 13.867188 -20.695312 14.171875 -19.15625 C 14.484375 -17.613281 14.640625 -15.785156 14.640625 -13.671875 C 14.640625 -13.078125 14.625 -12.472656 14.59375 -11.859375 C 14.570312 -11.253906 14.53125 -10.617188 14.46875 -9.953125 L 6.15625 -8.859375 C 6.21875 -8.273438 6.3125 -7.722656 6.4375 -7.203125 C 6.570312 -6.691406 6.753906 -6.234375 6.984375 -5.828125 C 7.210938 -5.429688 7.484375 -5.113281 7.796875 -4.875 C 8.109375 -4.644531 8.492188 -4.53125 8.953125 -4.53125 C 9.796875 -4.53125 10.640625 -4.582031 11.484375 -4.6875 C 12.328125 -4.789062 13.210938 -4.910156 14.140625 -5.046875 Z M 6.015625 -12.84375 L 9.90625 -13.578125 L 9.90625 -14.46875 C 9.90625 -15.800781 9.800781 -16.832031 9.59375 -17.5625 C 9.394531 -18.289062 9.179688 -18.828125 8.953125 -19.171875 C 8.671875 -19.578125 8.347656 -19.8125 7.984375 -19.875 C 7.535156 -19.820312 7.175781 -19.609375 6.90625 -19.234375 C 6.632812 -18.859375 6.429688 -18.375 6.296875 -17.78125 C 6.171875 -17.195312 6.09375 -16.535156 6.0625 -15.796875 C 6.03125 -15.066406 6.015625 -14.328125 6.015625 -13.578125 Z M 6.015625 -12.84375 "/></g></g></g><g fill="#111111" fill-opacity="1"><g transform="translate(134.306727, 72.494331)"><g><path d="M 12.078125 -19.28125 C 11.859375 -19.5625 11.59375 -19.78125 11.28125 -19.9375 C 10.96875 -20.09375 10.648438 -20.207031 10.328125 -20.28125 C 10.015625 -20.363281 9.722656 -20.414062 9.453125 -20.4375 C 9.191406 -20.46875 9.007812 -20.484375 8.90625 -20.484375 C 8.4375 -20.484375 8.015625 -20.28125 7.640625 -19.875 C 7.273438 -19.46875 6.960938 -18.882812 6.703125 -18.125 C 6.441406 -17.375 6.242188 -16.460938 6.109375 -15.390625 C 5.984375 -14.328125 5.921875 -13.128906 5.921875 -11.796875 C 5.921875 -10.503906 6.007812 -9.328125 6.1875 -8.265625 C 6.363281 -7.210938 6.679688 -6.304688 7.140625 -5.546875 C 7.597656 -4.796875 8.207031 -4.191406 8.96875 -3.734375 C 9.738281 -3.273438 10.710938 -3.007812 11.890625 -2.9375 L 11.75 1.109375 C 11.476562 1.140625 11.210938 1.160156 10.953125 1.171875 C 10.703125 1.191406 10.445312 1.203125 10.1875 1.203125 C 8.84375 1.203125 7.679688 1.03125 6.703125 0.6875 C 5.722656 0.351562 4.890625 -0.113281 4.203125 -0.71875 C 3.515625 -1.332031 2.953125 -2.054688 2.515625 -2.890625 C 2.085938 -3.734375 1.75 -4.648438 1.5 -5.640625 C 1.25 -6.640625 1.082031 -7.695312 1 -8.8125 C 0.914062 -9.9375 0.875 -11.085938 0.875 -12.265625 C 0.875 -13.078125 0.890625 -13.976562 0.921875 -14.96875 C 0.960938 -15.96875 1.054688 -16.972656 1.203125 -17.984375 C 1.359375 -18.992188 1.585938 -19.972656 1.890625 -20.921875 C 2.191406 -21.878906 2.609375 -22.726562 3.140625 -23.46875 C 3.679688 -24.21875 4.351562 -24.816406 5.15625 -25.265625 C 5.957031 -25.710938 6.929688 -25.9375 8.078125 -25.9375 C 8.578125 -25.9375 9.0625 -25.894531 9.53125 -25.8125 C 10 -25.738281 10.429688 -25.640625 10.828125 -25.515625 C 11.222656 -25.398438 11.5625 -25.273438 11.84375 -25.140625 C 12.125 -25.015625 12.328125 -24.894531 12.453125 -24.78125 Z M 12.078125 -19.28125 "/></g></g></g><g fill="#111111" fill-opacity="1"><g transform="translate(147.154452, 72.494331)"><g><path d="M 9.625 -31.71875 C 9.5 -30.445312 9.390625 -29.210938 9.296875 -28.015625 C 9.203125 -26.816406 9.117188 -25.625 9.046875 -24.4375 C 9.640625 -24.46875 10.226562 -24.492188 10.8125 -24.515625 C 11.40625 -24.535156 12.003906 -24.578125 12.609375 -24.640625 L 12.453125 -19.875 C 11.859375 -19.90625 11.25 -19.921875 10.625 -19.921875 C 10.007812 -19.921875 9.40625 -19.921875 8.8125 -19.921875 C 8.6875 -17.660156 8.59375 -15.453125 8.53125 -13.296875 C 8.476562 -11.148438 8.453125 -8.976562 8.453125 -6.78125 C 8.453125 -5.65625 8.460938 -4.523438 8.484375 -3.390625 C 8.515625 -2.253906 8.546875 -1.109375 8.578125 0.046875 L 3.40625 0.140625 C 3.519531 -3.222656 3.613281 -6.550781 3.6875 -9.84375 C 3.769531 -13.144531 3.8125 -16.472656 3.8125 -19.828125 C 3.207031 -19.796875 2.597656 -19.765625 1.984375 -19.734375 C 1.378906 -19.710938 0.78125 -19.679688 0.1875 -19.640625 L 0.375 -24.78125 C 0.925781 -24.707031 1.488281 -24.644531 2.0625 -24.59375 C 2.644531 -24.550781 3.210938 -24.515625 3.765625 -24.484375 C 3.765625 -25.703125 3.75 -26.894531 3.71875 -28.0625 C 3.695312 -29.238281 3.664062 -30.441406 3.625 -31.671875 Z M 9.625 -31.71875 "/></g></g></g><g fill="#111111" fill-opacity="1"><g transform="translate(159.767301, 72.494331)"><g><path d="M 14.78125 -0.640625 C 13.320312 -0.128906 11.992188 0.203125 10.796875 0.359375 C 9.597656 0.515625 8.613281 0.59375 7.84375 0.59375 C 6.882812 0.59375 6.046875 0.398438 5.328125 0.015625 C 4.609375 -0.359375 3.984375 -0.859375 3.453125 -1.484375 C 2.929688 -2.109375 2.5 -2.832031 2.15625 -3.65625 C 1.8125 -4.476562 1.535156 -5.34375 1.328125 -6.25 C 1.128906 -7.15625 0.988281 -8.070312 0.90625 -9 C 0.820312 -9.9375 0.78125 -10.820312 0.78125 -11.65625 C 0.78125 -13.71875 0.941406 -15.617188 1.265625 -17.359375 C 1.597656 -19.109375 2.078125 -20.617188 2.703125 -21.890625 C 3.328125 -23.160156 4.097656 -24.148438 5.015625 -24.859375 C 5.941406 -25.578125 6.992188 -25.9375 8.171875 -25.9375 C 9.140625 -25.9375 10.023438 -25.691406 10.828125 -25.203125 C 11.628906 -24.722656 12.3125 -23.976562 12.875 -22.96875 C 13.4375 -21.96875 13.867188 -20.695312 14.171875 -19.15625 C 14.484375 -17.613281 14.640625 -15.785156 14.640625 -13.671875 C 14.640625 -13.078125 14.625 -12.472656 14.59375 -11.859375 C 14.570312 -11.253906 14.53125 -10.617188 14.46875 -9.953125 L 6.15625 -8.859375 C 6.21875 -8.273438 6.3125 -7.722656 6.4375 -7.203125 C 6.570312 -6.691406 6.753906 -6.234375 6.984375 -5.828125 C 7.210938 -5.429688 7.484375 -5.113281 7.796875 -4.875 C 8.109375 -4.644531 8.492188 -4.53125 8.953125 -4.53125 C 9.796875 -4.53125 10.640625 -4.582031 11.484375 -4.6875 C 12.328125 -4.789062 13.210938 -4.910156 14.140625 -5.046875 Z M 6.015625 -12.84375 L 9.90625 -13.578125 L 9.90625 -14.46875 C 9.90625 -15.800781 9.800781 -16.832031 9.59375 -17.5625 C 9.394531 -18.289062 9.179688 -18.828125 8.953125 -19.171875 C 8.671875 -19.578125 8.347656 -19.8125 7.984375 -19.875 C 7.535156 -19.820312 7.175781 -19.609375 6.90625 -19.234375 C 6.632812 -18.859375 6.429688 -18.375 6.296875 -17.78125 C 6.171875 -17.195312 6.09375 -16.535156 6.0625 -15.796875 C 6.03125 -15.066406 6.015625 -14.328125 6.015625 -13.578125 Z M 6.015625 -12.84375 "/></g></g></g><g fill="#111111" fill-opacity="1"><g transform="translate(175.36307, 72.494331)"><g><path d="M 16.015625 -33.46875 L 15.4375 0.28125 L 10.921875 0.28125 L 10.921875 -2.109375 C 10.460938 -1.441406 10.019531 -0.921875 9.59375 -0.546875 C 9.175781 -0.179688 8.804688 0.0859375 8.484375 0.265625 C 8.085938 0.460938 7.726562 0.585938 7.40625 0.640625 C 6.601562 0.640625 5.8125 0.398438 5.03125 -0.078125 C 4.25 -0.554688 3.546875 -1.351562 2.921875 -2.46875 C 2.304688 -3.582031 1.800781 -5.039062 1.40625 -6.84375 C 1.019531 -8.65625 0.828125 -10.898438 0.828125 -13.578125 C 0.828125 -15.628906 0.992188 -17.429688 1.328125 -18.984375 C 1.660156 -20.546875 2.109375 -21.851562 2.671875 -22.90625 C 3.242188 -23.957031 3.894531 -24.75 4.625 -25.28125 C 5.363281 -25.8125 6.132812 -26.078125 6.9375 -26.078125 C 7.351562 -26.046875 7.773438 -25.9375 8.203125 -25.75 C 8.554688 -25.570312 8.953125 -25.3125 9.390625 -24.96875 C 9.828125 -24.625 10.242188 -24.140625 10.640625 -23.515625 L 10.34375 -33.234375 Z M 11.0625 -11.34375 C 11.03125 -12.40625 10.992188 -13.492188 10.953125 -14.609375 C 10.921875 -15.722656 10.816406 -16.738281 10.640625 -17.65625 C 10.472656 -18.570312 10.210938 -19.320312 9.859375 -19.90625 C 9.503906 -20.5 9.003906 -20.796875 8.359375 -20.796875 C 7.765625 -20.796875 7.296875 -20.550781 6.953125 -20.0625 C 6.617188 -19.570312 6.367188 -18.941406 6.203125 -18.171875 C 6.046875 -17.410156 5.953125 -16.566406 5.921875 -15.640625 C 5.890625 -14.722656 5.875 -13.820312 5.875 -12.9375 C 5.875 -12.332031 5.882812 -11.691406 5.90625 -11.015625 C 5.925781 -10.335938 5.96875 -9.664062 6.03125 -9 C 6.09375 -8.34375 6.1875 -7.710938 6.3125 -7.109375 C 6.4375 -6.515625 6.59375 -5.988281 6.78125 -5.53125 C 6.976562 -5.070312 7.210938 -4.707031 7.484375 -4.4375 C 7.753906 -4.175781 8.078125 -4.046875 8.453125 -4.046875 C 8.921875 -4.046875 9.316406 -4.234375 9.640625 -4.609375 C 9.972656 -4.992188 10.242188 -5.515625 10.453125 -6.171875 C 10.671875 -6.835938 10.828125 -7.609375 10.921875 -8.484375 C 11.015625 -9.367188 11.0625 -10.320312 11.0625 -11.34375 Z M 11.0625 -11.34375 "/></g></g></g><g fill="#38b6ff" fill-opacity="1"><g transform="translate(192.6306, 72.494331)"><g><path d="M 6.828125 -0.640625 C 6.421875 -0.617188 5.960938 -0.585938 5.453125 -0.546875 C 5.015625 -0.515625 4.5 -0.472656 3.90625 -0.421875 C 3.320312 -0.378906 2.675781 -0.316406 1.96875 -0.234375 C 1.832031 -5.546875 1.6875 -10.238281 1.53125 -14.3125 C 1.375 -18.394531 1.234375 -21.847656 1.109375 -24.671875 C 0.953125 -27.953125 0.796875 -30.804688 0.640625 -33.234375 L 6.734375 -33.515625 C 6.734375 -29.984375 6.734375 -26.800781 6.734375 -23.96875 C 6.734375 -21.144531 6.738281 -18.628906 6.75 -16.421875 C 6.757812 -14.222656 6.765625 -12.304688 6.765625 -10.671875 C 6.773438 -9.035156 6.78125 -7.628906 6.78125 -6.453125 C 6.800781 -3.710938 6.816406 -1.773438 6.828125 -0.640625 Z M 6.828125 -0.640625 "/></g></g></g><g fill="#38b6ff" fill-opacity="1"><g transform="translate(200.992187, 72.494331)"><g><path d="M 8.625 -31.21875 C 8.625 -30.726562 8.546875 -30.273438 8.390625 -29.859375 C 8.234375 -29.453125 8 -29.09375 7.6875 -28.78125 C 7.375 -28.476562 6.976562 -28.238281 6.5 -28.0625 C 6.019531 -27.894531 5.457031 -27.8125 4.8125 -27.8125 C 4.113281 -27.8125 3.523438 -27.894531 3.046875 -28.0625 C 2.566406 -28.238281 2.171875 -28.476562 1.859375 -28.78125 C 1.554688 -29.09375 1.335938 -29.453125 1.203125 -29.859375 C 1.078125 -30.273438 1.015625 -30.726562 1.015625 -31.21875 C 1.015625 -31.6875 1.082031 -32.128906 1.21875 -32.546875 C 1.363281 -32.960938 1.585938 -33.328125 1.890625 -33.640625 C 2.191406 -33.953125 2.585938 -34.195312 3.078125 -34.375 C 3.566406 -34.5625 4.144531 -34.65625 4.8125 -34.65625 C 5.488281 -34.65625 6.066406 -34.5625 6.546875 -34.375 C 7.023438 -34.195312 7.414062 -33.953125 7.71875 -33.640625 C 8.019531 -33.328125 8.242188 -32.960938 8.390625 -32.546875 C 8.546875 -32.128906 8.625 -31.6875 8.625 -31.21875 Z M 7.21875 -24.390625 C 7.125 -23.523438 7.046875 -22.597656 6.984375 -21.609375 C 6.921875 -20.617188 6.863281 -19.59375 6.8125 -18.53125 C 6.757812 -17.476562 6.722656 -16.40625 6.703125 -15.3125 C 6.691406 -14.226562 6.6875 -13.164062 6.6875 -12.125 C 6.6875 -10.894531 6.695312 -9.710938 6.71875 -8.578125 C 6.75 -7.453125 6.785156 -6.410156 6.828125 -5.453125 C 6.867188 -4.492188 6.914062 -3.644531 6.96875 -2.90625 C 7.019531 -2.175781 7.085938 -1.609375 7.171875 -1.203125 C 6.535156 -1.203125 5.882812 -1.1875 5.21875 -1.15625 C 4.632812 -1.125 3.984375 -1.082031 3.265625 -1.03125 C 2.546875 -0.988281 1.828125 -0.921875 1.109375 -0.828125 C 1.367188 -3.640625 1.546875 -6.21875 1.640625 -8.5625 C 1.734375 -10.90625 1.78125 -13.007812 1.78125 -14.875 C 1.78125 -16.46875 1.753906 -17.863281 1.703125 -19.0625 C 1.648438 -20.257812 1.59375 -21.273438 1.53125 -22.109375 C 1.46875 -23.078125 1.390625 -23.90625 1.296875 -24.59375 C 2.171875 -24.488281 2.972656 -24.421875 3.703125 -24.390625 C 4.429688 -24.359375 5.0625 -24.34375 5.59375 -24.34375 C 5.84375 -24.34375 6.066406 -24.34375 6.265625 -24.34375 C 6.472656 -24.34375 6.644531 -24.347656 6.78125 -24.359375 C 6.957031 -24.359375 7.101562 -24.367188 7.21875 -24.390625 Z M 7.21875 -24.390625 "/></g></g></g><g fill="#38b6ff" fill-opacity="1"><g transform="translate(209.40075, 72.494331)"><g><path d="M 10.921875 -0.140625 C 11.265625 -2.660156 11.507812 -5.210938 11.65625 -7.796875 C 11.8125 -10.378906 11.890625 -13.085938 11.890625 -15.921875 C 11.890625 -16.878906 11.828125 -17.644531 11.703125 -18.21875 C 11.578125 -18.789062 11.410156 -19.226562 11.203125 -19.53125 C 11.003906 -19.832031 10.785156 -20.023438 10.546875 -20.109375 C 10.304688 -20.203125 10.078125 -20.25 9.859375 -20.25 C 9.546875 -20.25 9.253906 -20.191406 8.984375 -20.078125 C 8.710938 -19.972656 8.457031 -19.765625 8.21875 -19.453125 C 7.988281 -19.140625 7.773438 -18.703125 7.578125 -18.140625 C 7.378906 -17.578125 7.207031 -16.832031 7.0625 -15.90625 C 6.925781 -14.976562 6.820312 -13.851562 6.75 -12.53125 C 6.675781 -11.207031 6.640625 -9.628906 6.640625 -7.796875 C 6.640625 -7.140625 6.640625 -6.453125 6.640625 -5.734375 C 6.640625 -5.023438 6.644531 -4.347656 6.65625 -3.703125 C 6.664062 -3.066406 6.671875 -2.5 6.671875 -2 C 6.679688 -1.507812 6.703125 -1.164062 6.734375 -0.96875 L 1.4375 -1.015625 C 1.476562 -2.429688 1.507812 -3.695312 1.53125 -4.8125 C 1.5625 -5.9375 1.582031 -6.96875 1.59375 -7.90625 C 1.613281 -8.851562 1.625 -9.738281 1.625 -10.5625 C 1.632812 -11.382812 1.640625 -12.191406 1.640625 -12.984375 C 1.640625 -13.710938 1.632812 -14.453125 1.625 -15.203125 C 1.625 -15.960938 1.617188 -16.78125 1.609375 -17.65625 C 1.597656 -18.539062 1.582031 -19.503906 1.5625 -20.546875 C 1.539062 -21.585938 1.515625 -22.738281 1.484375 -24 L 6.984375 -24.15625 L 6.890625 -21.75 C 7.304688 -22.550781 7.753906 -23.191406 8.234375 -23.671875 C 8.722656 -24.148438 9.207031 -24.519531 9.6875 -24.78125 C 10.164062 -25.050781 10.628906 -25.226562 11.078125 -25.3125 C 11.535156 -25.394531 11.945312 -25.4375 12.3125 -25.4375 C 13.28125 -25.4375 14.078125 -25.097656 14.703125 -24.421875 C 15.328125 -23.753906 15.820312 -22.859375 16.1875 -21.734375 C 16.5625 -20.617188 16.816406 -19.335938 16.953125 -17.890625 C 17.097656 -16.453125 17.171875 -14.957031 17.171875 -13.40625 C 17.171875 -12.28125 17.140625 -11.140625 17.078125 -9.984375 C 17.023438 -8.828125 16.960938 -7.6875 16.890625 -6.5625 C 16.828125 -5.445312 16.75 -4.367188 16.65625 -3.328125 C 16.570312 -2.285156 16.5 -1.316406 16.4375 -0.421875 Z M 10.921875 -0.140625 "/></g></g></g><g fill="#38b6ff" fill-opacity="1"><g transform="translate(227.815031, 72.494331)"><g><path d="M 14.78125 -0.640625 C 13.320312 -0.128906 11.992188 0.203125 10.796875 0.359375 C 9.597656 0.515625 8.613281 0.59375 7.84375 0.59375 C 6.882812 0.59375 6.046875 0.398438 5.328125 0.015625 C 4.609375 -0.359375 3.984375 -0.859375 3.453125 -1.484375 C 2.929688 -2.109375 2.5 -2.832031 2.15625 -3.65625 C 1.8125 -4.476562 1.535156 -5.34375 1.328125 -6.25 C 1.128906 -7.15625 0.988281 -8.070312 0.90625 -9 C 0.820312 -9.9375 0.78125 -10.820312 0.78125 -11.65625 C 0.78125 -13.71875 0.941406 -15.617188 1.265625 -17.359375 C 1.597656 -19.109375 2.078125 -20.617188 2.703125 -21.890625 C 3.328125 -23.160156 4.097656 -24.148438 5.015625 -24.859375 C 5.941406 -25.578125 6.992188 -25.9375 8.171875 -25.9375 C 9.140625 -25.9375 10.023438 -25.691406 10.828125 -25.203125 C 11.628906 -24.722656 12.3125 -23.976562 12.875 -22.96875 C 13.4375 -21.96875 13.867188 -20.695312 14.171875 -19.15625 C 14.484375 -17.613281 14.640625 -15.785156 14.640625 -13.671875 C 14.640625 -13.078125 14.625 -12.472656 14.59375 -11.859375 C 14.570312 -11.253906 14.53125 -10.617188 14.46875 -9.953125 L 6.15625 -8.859375 C 6.21875 -8.273438 6.3125 -7.722656 6.4375 -7.203125 C 6.570312 -6.691406 6.753906 -6.234375 6.984375 -5.828125 C 7.210938 -5.429688 7.484375 -5.113281 7.796875 -4.875 C 8.109375 -4.644531 8.492188 -4.53125 8.953125 -4.53125 C 9.796875 -4.53125 10.640625 -4.582031 11.484375 -4.6875 C 12.328125 -4.789062 13.210938 -4.910156 14.140625 -5.046875 Z M 6.015625 -12.84375 L 9.90625 -13.578125 L 9.90625 -14.46875 C 9.90625 -15.800781 9.800781 -16.832031 9.59375 -17.5625 C 9.394531 -18.289062 9.179688 -18.828125 8.953125 -19.171875 C 8.671875 -19.578125 8.347656 -19.8125 7.984375 -19.875 C 7.535156 -19.820312 7.175781 -19.609375 6.90625 -19.234375 C 6.632812 -18.859375 6.429688 -18.375 6.296875 -17.78125 C 6.171875 -17.195312 6.09375 -16.535156 6.0625 -15.796875 C 6.03125 -15.066406 6.015625 -14.328125 6.015625 -13.578125 Z M 6.015625 -12.84375 "/></g></g></g><g fill="#38b6ff" fill-opacity="1"><g transform="translate(243.410801, 72.494331)"><g><path d="M 16.203125 -23.1875 C 16.078125 -20.664062 15.988281 -18.171875 15.9375 -15.703125 C 15.894531 -13.234375 15.875 -10.753906 15.875 -8.265625 C 15.875 -6.796875 15.878906 -5.335938 15.890625 -3.890625 C 15.898438 -2.453125 15.925781 -1 15.96875 0.46875 L 11.296875 0.59375 L 11.296875 -2.34375 C 10.828125 -1.582031 10.300781 -0.992188 9.71875 -0.578125 C 9.144531 -0.171875 8.59375 0.117188 8.0625 0.296875 C 7.539062 0.472656 7.09375 0.570312 6.71875 0.59375 C 6.34375 0.625 6.125 0.640625 6.0625 0.640625 C 5.070312 0.429688 4.25 -0.00390625 3.59375 -0.671875 C 2.945312 -1.335938 2.429688 -2.164062 2.046875 -3.15625 C 1.671875 -4.15625 1.40625 -5.28125 1.25 -6.53125 C 1.09375 -7.78125 1.015625 -9.097656 1.015625 -10.484375 C 1.015625 -11.671875 1.0625 -12.878906 1.15625 -14.109375 C 1.25 -15.347656 1.363281 -16.566406 1.5 -17.765625 C 1.644531 -18.960938 1.800781 -20.117188 1.96875 -21.234375 C 2.144531 -22.359375 2.316406 -23.410156 2.484375 -24.390625 L 7.609375 -24.296875 C 7.472656 -23.367188 7.328125 -22.363281 7.171875 -21.28125 C 7.023438 -20.195312 6.890625 -19.09375 6.765625 -17.96875 C 6.648438 -16.84375 6.554688 -15.710938 6.484375 -14.578125 C 6.421875 -13.441406 6.390625 -12.363281 6.390625 -11.34375 C 6.390625 -10.40625 6.425781 -9.53125 6.5 -8.71875 C 6.582031 -7.90625 6.707031 -7.195312 6.875 -6.59375 C 7.050781 -5.988281 7.273438 -5.515625 7.546875 -5.171875 C 7.828125 -4.835938 8.171875 -4.671875 8.578125 -4.671875 C 9.109375 -4.671875 9.546875 -4.988281 9.890625 -5.625 C 10.234375 -6.269531 10.503906 -7.113281 10.703125 -8.15625 C 10.898438 -9.195312 11.03125 -10.367188 11.09375 -11.671875 C 11.164062 -12.972656 11.203125 -14.28125 11.203125 -15.59375 C 11.203125 -16.582031 11.1875 -17.519531 11.15625 -18.40625 C 11.125 -19.300781 11.09375 -20.101562 11.0625 -20.8125 C 11.019531 -21.625 10.972656 -22.382812 10.921875 -23.09375 Z M 16.203125 -23.1875 "/></g></g></g><g fill="#38b6ff" fill-opacity="1"><g transform="translate(260.862096, 72.494331)"><g><path d="M 9.53125 -25.984375 C 10.550781 -25.984375 11.429688 -25.722656 12.171875 -25.203125 C 12.921875 -24.691406 13.550781 -24.015625 14.0625 -23.171875 C 14.570312 -22.335938 14.976562 -21.378906 15.28125 -20.296875 C 15.582031 -19.210938 15.816406 -18.101562 15.984375 -16.96875 C 16.148438 -15.832031 16.257812 -14.722656 16.3125 -13.640625 C 16.363281 -12.566406 16.390625 -11.597656 16.390625 -10.734375 C 16.390625 -8.773438 16.234375 -7.078125 15.921875 -5.640625 C 15.609375 -4.210938 15.179688 -3.03125 14.640625 -2.09375 C 14.109375 -1.15625 13.488281 -0.457031 12.78125 0 C 12.070312 0.457031 11.328125 0.6875 10.546875 0.6875 C 10.078125 0.632812 9.597656 0.523438 9.109375 0.359375 C 8.703125 0.203125 8.257812 -0.0351562 7.78125 -0.359375 C 7.3125 -0.679688 6.863281 -1.140625 6.4375 -1.734375 L 6.890625 7.890625 L 1.59375 7.890625 L 1.59375 -24.203125 L 6.109375 -24.53125 L 6.109375 -23.234375 C 6.296875 -23.585938 6.507812 -23.929688 6.75 -24.265625 C 7 -24.609375 7.265625 -24.90625 7.546875 -25.15625 C 7.828125 -25.40625 8.128906 -25.601562 8.453125 -25.75 C 8.785156 -25.90625 9.144531 -25.984375 9.53125 -25.984375 Z M 11.34375 -10.734375 C 11.34375 -11.265625 11.332031 -11.894531 11.3125 -12.625 C 11.289062 -13.351562 11.25 -14.109375 11.1875 -14.890625 C 11.125 -15.671875 11.03125 -16.445312 10.90625 -17.21875 C 10.78125 -17.988281 10.609375 -18.671875 10.390625 -19.265625 C 10.179688 -19.867188 9.921875 -20.359375 9.609375 -20.734375 C 9.304688 -21.117188 8.9375 -21.3125 8.5 -21.3125 C 8.082031 -21.3125 7.71875 -21.117188 7.40625 -20.734375 C 7.09375 -20.347656 6.835938 -19.828125 6.640625 -19.171875 C 6.441406 -18.515625 6.296875 -17.75 6.203125 -16.875 C 6.109375 -16.007812 6.0625 -15.097656 6.0625 -14.140625 C 6.0625 -13.703125 6.0625 -13.164062 6.0625 -12.53125 C 6.070312 -11.894531 6.097656 -11.222656 6.140625 -10.515625 C 6.191406 -9.816406 6.273438 -9.113281 6.390625 -8.40625 C 6.515625 -7.707031 6.679688 -7.078125 6.890625 -6.515625 C 7.109375 -5.960938 7.382812 -5.507812 7.71875 -5.15625 C 8.050781 -4.800781 8.460938 -4.625 8.953125 -4.625 C 9.484375 -4.625 9.910156 -4.796875 10.234375 -5.140625 C 10.554688 -5.484375 10.796875 -5.941406 10.953125 -6.515625 C 11.117188 -7.085938 11.222656 -7.738281 11.265625 -8.46875 C 11.316406 -9.207031 11.34375 -9.960938 11.34375 -10.734375 Z M 11.34375 -10.734375 "/></g></g></g></svg>